<svg width="24" height="24" viewBox="0 0 24 24" fill="none" xmlns="http://www.w3.org/2000/svg">
<path d="M18.8571 4.92871V17.5716C18.8571 17.8082 19.049 18.0001 19.2857 18.0001C19.4961 18.0001 19.671 17.8485 19.7073 17.6486L19.7142 17.5716V6.00014H20.7857C21.5727 6.00014 22.2181 6.60623 22.2807 7.37711L22.2857 7.50014V17.7859C22.2857 19.2713 21.1229 20.4852 19.658 20.5672L19.4999 20.5716H4.49995C3.01449 20.5716 1.80059 19.4089 1.71864 17.9439L1.71423 17.7859V4.92871C1.71423 4.14171 2.32033 3.49626 3.09121 3.43368L3.21423 3.42871H17.3571C18.1441 3.42871 18.7895 4.03481 18.8521 4.80569L18.8571 4.92871ZM8.35412 11.146H6.21423C5.42723 11.146 4.78178 11.7521 4.7192 12.5229L4.71423 12.646V14.7859C4.71423 15.5729 5.32033 16.2183 6.09121 16.2809L6.21423 16.2859H8.35412C9.14112 16.2859 9.78655 15.6798 9.84912 14.9089L9.85409 14.7859V12.646C9.85409 11.859 9.248 11.2135 8.47713 11.151L8.35412 11.146ZM15.2142 15.0001H12.2142L12.127 15.006C11.8133 15.0486 11.5714 15.3175 11.5714 15.643C11.5714 15.9685 11.8133 16.2374 12.127 16.28L12.2142 16.2859H15.2142L15.3015 16.28C15.6152 16.2374 15.8571 15.9685 15.8571 15.643C15.8571 15.3175 15.6152 15.0486 15.3015 15.006L15.2142 15.0001ZM6.21423 12.4317H8.35412C8.45555 12.4317 8.54053 12.5022 8.56274 12.5968L8.5684 12.646V14.7859C8.5684 14.8873 8.49791 14.9723 8.40325 14.9945L8.35412 15.0001H6.21423C6.11279 15.0001 6.02781 14.9297 6.0056 14.835L5.99995 14.7859V12.646C5.99995 12.5445 6.07043 12.4596 6.1651 12.4374L6.21423 12.4317ZM15.2142 11.146H12.2142L12.127 11.1518C11.8133 11.1944 11.5714 11.4634 11.5714 11.7889C11.5714 12.1143 11.8133 12.3833 12.127 12.4258L12.2142 12.4317H15.2142L15.3015 12.4258C15.6152 12.3833 15.8571 12.1143 15.8571 11.7889C15.8571 11.4634 15.6152 11.1944 15.3015 11.1518L15.2142 11.146ZM15.2142 7.28299H5.35709L5.26986 7.28885C4.95608 7.33143 4.71423 7.60039 4.71423 7.92585C4.71423 8.2513 4.95608 8.52027 5.26986 8.56283L5.35709 8.56871H15.2142L15.3015 8.56283C15.6152 8.52027 15.8571 8.2513 15.8571 7.92585C15.8571 7.60039 15.6152 7.33143 15.3015 7.28885L15.2142 7.28299Z" fill="#111111"/>
</svg>
