<svg width="24" height="24" viewBox="0 0 24 24" fill="none" xmlns="http://www.w3.org/2000/svg">
<path d="M21.6 19.2001V4.8001C21.6 4.1401 21.06 3.6001 20.4 3.6001H4.79998C4.13998 3.6001 3.59998 4.1401 3.59998 4.8001V19.2001C3.59998 19.8601 4.13998 20.4001 4.79998 20.4001H20.4C21.06 20.4001 21.6 19.8601 21.6 19.2001ZM9.59998 13.2001H10.8C11.46 13.2001 12 13.7401 12 14.4001C12 15.0601 11.46 15.6001 10.8 15.6001H9.59998V17.4001C9.59998 17.7361 9.33598 18.0001 8.99998 18.0001C8.66398 18.0001 8.39998 17.7361 8.39998 17.4001V15.6001H7.19998C6.53998 15.6001 5.99998 15.0601 5.99998 14.4001C5.99998 13.7401 6.53998 13.2001 7.19998 13.2001H8.39998V6.6001C8.39998 6.2641 8.66398 6.0001 8.99998 6.0001C9.33598 6.0001 9.59998 6.2641 9.59998 6.6001V13.2001ZM15.6 10.8001H14.4C13.74 10.8001 13.2 10.2601 13.2 9.6001C13.2 8.9401 13.74 8.4001 14.4 8.4001H15.6V6.6001C15.6 6.2641 15.864 6.0001 16.2 6.0001C16.536 6.0001 16.8 6.2641 16.8 6.6001V8.4001H18C18.66 8.4001 19.2 8.9401 19.2 9.6001C19.2 10.2601 18.66 10.8001 18 10.8001H16.8V17.4001C16.8 17.7361 16.536 18.0001 16.2 18.0001C15.864 18.0001 15.6 17.7361 15.6 17.4001V10.8001Z" fill="#111111"/>
</svg>
